#!OML:ASF H:\Male1\Project 1\Capture day 1\Session 1\Male1.ASF
:FULLY-SPECIFIED
:DEGREES
415
root 47.1164 15.2278 0.081934 718.767 203.218 718.165
lowerback 7.45273 1.90194 -1.40653
upperback 5.9885 1.99653 -2.09771
thorax 2.03861 0.79067 -1.49219
lowerneck 0.417369 12.3256 17.3514
upperneck 4.59393 17.3158 -17.9659
head 4.43067 8.53296 -7.28979
rclavicle -3.35946e-014 1.86858e-014
rhumerus -41.4752 0.481249 -88.3831
rradius 45.5752
rwrist -26.1534
rhand -19.0036 -1.7252
rfingers 7.12502
rthumb 7.3017 -31.5792
lclavicle -3.35946e-014 1.86858e-014
lhumerus -29.9517 4.70772 78.1739
lradius 35.9082
lwrist 8.78757
lhand -23.7528 15.079
lfingers 7.12502
lthumb 2.71612 45.0414
rfemur -14.3098 21.4678 17.1901
rtibia 36.3064
rfoot -23.4439 -2.88069
rtoes -27.0516
lfemur -10.4078 -22.9302 -20.8948
ltibia 28.2747
lfoot -16.6512 -22.1046
ltoes -9.46905
416
root 47.1924 15.2153 0.0265135 719.023 205.118 717.872
lowerback 7.54979 1.874 -1.26002
upperback 6.13175 1.95922 -2.147
thorax 2.14105 0.774025 -1.6244
lowerneck 0.389169 12.5062 17.4066
upperneck 4.55836 17.5812 -18.2322
head 4.50459 8.65716 -7.34575
rclavicle 6.20208e-014 -3.97569e-015
rhumerus -41.4165 0.705933 -88.217
rradius 46.1635
rwrist -27.1333
rhand -18.4336 -1.80654
rfingers 7.12502
rthumb 7.85185 -31.6407
lclavicle 6.20208e-014 -3.97569e-015
lhumerus -29.9275 5.43553 77.8737
lradius 36.6172
lwrist 9.71826
lhand -24.372 15.4255
lfingers 7.12502
lthumb 2.11804 45.3947
rfemur -13.7032 21.097 17.4094
rtibia 35.9825
rfoot -23.2634 -4.68208
rtoes -26.4921
lfemur -11.0349 -23.4411 -20.7077
ltibia 28.6435
lfoot -15.6269 -23.7846
ltoes -7.52308
417
root 47.2642 15.21 -0.0248743 719.143 206.98 717.677
lowerback 7.81004 1.96892 -0.759117
upperback 6.25319 2.0985 -2.30361
thorax 2.15346 0.859585 -2.08086
lowerneck 0.332554 12.5342 17.9165
upperneck 4.7111 17.6602 -18.6094
head 4.65902 8.69261 -7.52374
rclavicle 1.2921e-015 2.46493e-014
rhumerus -41.4947 0.459886 -88.1758
rradius 46.7255
rwrist -28.2778
rhand -18.0696 -1.86418
rfingers 7.12502
rthumb 8.20311 -31.6849
lclavicle 1.2921e-015 2.46493e-014
lhumerus -29.9033 5.77613 77.4917
lradius 37.2364
lwrist 9.21523
lhand -24.9513 16.5205
lfingers 7.12502
lthumb 1.55858 46.4945
rfemur -13.0324 20.8455 17.7677
rtibia 35.6558
rfoot -23.2694 -6.97922
rtoes -26.3866
lfemur -11.5409 -24.058 -20.5104
ltibia 29.0021
lfoot -14.2765 -25.2345
ltoes -4.3662
418
root 47.3328 15.2155 -0.0727102 719.177 208.845 717.718
lowerback 8.10649 1.93552 0.0014745
upperback 6.33598 2.09104 -2.36002
thorax 2.10987 0.882642 -2.57322
lowerneck 0.279736 12.5343 18.017
upperneck 5.02462 17.7027 -18.8344
head 4.80201 8.70053 -7.59799
rclavicle 9.03476e-014 -5.04913e-014
rhumerus -41.4983 0.578124 -88.1326
rradius 47.0316
rwrist -29.2342
rhand -18.2436 -1.7954
rfingers 7.12502
rthumb 8.03525 -31.6227
lclavicle 9.03476e-014 -5.04913e-014
lhumerus -29.995 6.02738 77.3204
lradius 37.635
lwrist 8.55248
lhand -24.3085 18.0408
lfingers 7.12502
lthumb 2.17943 48.0094
rfemur -12.4404 20.1141 18.2508
rtibia 35.2615
rfoot -23.2866 -8.7004
rtoes -26.3473
lfemur -12.0775 -24.8665 -20.156
ltibia 29.3774
lfoot -13.0367 -26.1054
ltoes -1.96888
419
root 47.4001 15.2278 -0.118617 719.39 210.814 717.729
lowerback 8.29011 1.81888 0.741167
upperback 6.31849 1.98994 -2.39283
thorax 2.01727 0.862712 -3.02223
lowerneck 0.156829 12.6297 18.0423
upperneck 5.47953 17.8774 -18.9873
head 5.01068 8.76577 -7.61371
rclavicle 4.70126e-014 5.84427e-014
rhumerus -41.536 0.797618 -87.9926
rradius 47.1564
rwrist -29.9666
rhand -18.7429 -1.6825
rfingers 7.12502
rthumb 7.55327 -31.5276
lclavicle 4.70126e-014 5.84427e-014
lhumerus -30.1564 6.13526 77.2791
lradius 37.7984
lwrist 8.08491
lhand -24.4118 17.4052
lfingers 7.12502
lthumb 2.07962 47.3748
rfemur -12.0029 18.9404 18.5373
rtibia 34.7609
rfoot -23.3021 -9.63342
rtoes -26.3535
lfemur -12.8494 -25.7453 -19.8176
ltibia 29.8433
lfoot -12.4232 -26.5189
ltoes -2.03708
420
root 47.4744 15.2445 -0.16125 719.813 212.836 717.669
lowerback 8.3608 1.702 1.28159
upperback 6.25168 1.88614 -2.38431
thorax 1.92355 0.835765 -3.31369
lowerneck -0.130328 12.6612 17.9026
upperneck 6.04614 17.9482 -19.0503
head 5.23718 8.76614 -7.57947
rclavicle -7.32522e-014 1.11319e-014
rhumerus -41.644 1.02817 -87.7738
rradius 47.3078
rwrist -30.5859
rhand -19.0139 -1.60199
rfingers 7.12502
rthumb 7.29171 -31.4564
lclavicle -7.32522e-014 1.11319e-014
lhumerus -30.0775 6.3633 77.2529
lradius 37.7342
lwrist 8.10209
lhand -23.6898 16.5858
lfingers 7.12502
lthumb 2.77698 46.5475
rfemur -11.7606 17.8593 18.6862
rtibia 34.2277
rfoot -23.5892 -10.2426
rtoes -25.3044
lfemur -13.9261 -26.3807 -19.4
ltibia 30.3738
lfoot -11.4626 -27.0824
ltoes -0.737551
